<mxfile host="app.diagrams.net" modified="2024-05-16T06:32:14.462Z" agent="Mozilla/5.0 (X11; Linux x86_64) AppleWebKit/537.36 (KHTML, like Gecko) Chrome/123.0.0.0 Safari/537.36" version="24.2.5" etag="sa8iwJMxzG_YKt3s7tSO" type="github">
  <diagram name="Page-1" id="pLM39KEU4MqkyFXeuWfa">
    <mxGraphModel>
      <root>
        <mxCell id="0" />
        <mxCell id="1" parent="0" />
      </root>
    </mxGraphModel>
  </diagram>
</mxfile>
